<?xml version="1.0" ?><svg data-name="Layer 1" id="Layer_1" viewBox="0 0 64 64" xmlns="http://www.w3.org/2000/svg"><defs><style>.cls-1{fill:#e2e7f0;}.cls-2{fill:#c9d5e3;}.cls-3{fill:#f6b545;}.cls-4{fill:#4c9cd6;}.cls-5{fill:#123247;}.cls-6{fill:#576d7e;}.cls-7{fill:#f19920;}.cls-8{fill:#3689c9;}.cls-9{fill:#b0c4d9;}</style></defs><title/><path class="cls-1" d="M60,0H14a2,2,0,0,0-2,2V59a5,5,0,0,1-5,5H57a5,5,0,0,0,5-5V2A2,2,0,0,0,60,0Z"/><path class="cls-2" d="M4,18a2,2,0,0,0-2,2V59a5,5,0,0,0,10,0V18H4Z"/><rect class="cls-3" height="14" rx="1" ry="1" width="19" x="16" y="22"/><rect class="cls-4" height="14" rx="1" ry="1" width="9" x="16" y="41"/><rect class="cls-4" height="14" rx="1" ry="1" width="9" x="49" y="41"/><path class="cls-5" d="M47,24H39a1,1,0,0,1,0-2h8A1,1,0,0,1,47,24Z"/><path class="cls-6" d="M57,28H39a1,1,0,0,1,0-2H57A1,1,0,0,1,57,28Z"/><path class="cls-2" d="M57,16H17a1,1,0,0,1,0-2H57A1,1,0,0,1,57,16Z"/><path class="cls-6" d="M57,32H39a1,1,0,0,1,0-2H57A1,1,0,0,1,57,32Z"/><path class="cls-6" d="M57,36H39a1,1,0,0,1,0-2H57A1,1,0,0,1,57,36Z"/><path class="cls-5" d="M36,43H29a1,1,0,0,1,0-2h7A1,1,0,0,1,36,43Z"/><path class="cls-6" d="M45,47H29a1,1,0,0,1,0-2H45A1,1,0,0,1,45,47Z"/><path class="cls-6" d="M45,51H29a1,1,0,0,1,0-2H45A1,1,0,0,1,45,51Z"/><path class="cls-6" d="M45,55H29a1,1,0,0,1,0-2H45A1,1,0,0,1,45,55Z"/><path class="cls-2" d="M60,4V59a3,3,0,0,1-3,3H17.83a29.5,29.5,0,0,0-9.28,1.75A4.92,4.92,0,0,1,7,64H57a5,5,0,0,0,5-5V2h0A2,2,0,0,0,60,4Z"/><path class="cls-7" d="M27,32c-3.42.75-5.92-3.83-8-5a3.65,3.65,0,0,0-3,0v8a1,1,0,0,0,1,1H34a1,1,0,0,0,1-1V27.88C32.56,28,30,31.34,27,32Z"/><circle class="cls-8" cx="20.5" cy="46.5" r="2.5"/><circle class="cls-8" cx="53.5" cy="46.5" r="2.5"/><path class="cls-8" d="M53.5,49.67A8.19,8.19,0,0,0,49,50.92V54a1,1,0,0,0,1,1h7a1,1,0,0,0,1-1V50.92A8.19,8.19,0,0,0,53.5,49.67Z"/><path class="cls-8" d="M20.5,49.67A8.19,8.19,0,0,0,16,50.92V54a1,1,0,0,0,1,1h7a1,1,0,0,0,1-1V50.92A8.19,8.19,0,0,0,20.5,49.67Z"/><path class="cls-6" d="M23,5a0.58,0.58,0,0,1,.6-0.71,0.82,0.82,0,0,1,.71.35l3.32,4.15V4.92a0.7,0.7,0,0,1,.63-0.69,0.76,0.76,0,0,1,.71.69v5.64a0.67,0.67,0,0,1-.53.69,1,1,0,0,1-.81-0.35L24.31,6.69v3.87a0.62,0.62,0,0,1-.63.69A0.66,0.66,0,0,1,23,10.56V5Z"/><path class="cls-6" d="M31.28,11.25a0.61,0.61,0,0,1-.62-0.62V4.94a0.61,0.61,0,0,1,.62-0.62h3.6a0.65,0.65,0,1,1,0,1.3H32v1.5h2.53a0.66,0.66,0,1,1,0,1.31H32v1.5H35a0.66,0.66,0,1,1,0,1.31H31.28Z"/><path class="cls-6" d="M44,8.86l1.49-4.13a0.65,0.65,0,1,1,1.21.44l-2,5.38c-0.18.57-.35,0.74-0.69,0.74a0.76,0.76,0,0,1-.67-0.58l-1.74-4L40,10.65a0.8,0.8,0,0,1-.71.66,0.78,0.78,0,0,1-.69-0.68L36.63,5.17a0.65,0.65,0,1,1,1.23-.44l1.48,4.13,1.77-4.13a0.58,0.58,0,0,1,1.13,0Z"/><path class="cls-6" d="M47.71,5.82c0.23-1.94,3.17-2.29,4.55-1.23a0.59,0.59,0,1,1-.64,1c-0.74-.47-2.42-0.69-2.63.35-0.27,1.64,4.09.7,4,3.37s-3.76,2.61-5.14,1.46a0.74,0.74,0,0,1-.14-1,0.59,0.59,0,0,1,.89-0.07c0.82,0.56,2.94,1,3.09-.44C51.57,7.78,47.4,8.67,47.71,5.82Z"/><path class="cls-9" d="M12,20a2,2,0,0,0-2,2V54a6,6,0,0,1-6,6H4a1.25,1.25,0,0,0-1,2,5,5,0,0,0,8.9-2h0a5.33,5.33,0,0,0,.1-1.2V20Z"/></svg>